<?xml version="1.0" standalone="no"?>
<!DOCTYPE svg PUBLIC "-//W3C//DTD SVG 20010904//EN"
 "http://www.w3.org/TR/2001/REC-SVG-20010904/DTD/svg10.dtd">
<svg version="1.0" xmlns="http://www.w3.org/2000/svg"
 width="300.000000pt" height="300.000000pt" viewBox="0 0 300.000000 300.000000"
 preserveAspectRatio="xMidYMid meet">
<metadata>
Created by potrace 1.14, written by Peter Selinger 2001-2017
</metadata>
<g transform="translate(0.000000,300.000000) scale(0.100000,-0.100000)"
fill="#000000" stroke="none">
<path d="M1310 2994 c-224 -41 -345 -80 -502 -161 -399 -206 -679 -574 -780
-1024 -20 -90 -23 -131 -23 -299 0 -210 14 -302 70 -476 186 -571 725 -992
1315 -1028 82 -5 83 -5 23 5 -174 27 -399 105 -539 187 -401 234 -663 622
-739 1096 l-6 39 33 -7 c53 -11 520 -54 665 -61 l131 -7 38 -76 c91 -185 296
-312 504 -312 208 0 413 127 504 312 l38 75 126 7 c244 13 680 58 805 82 l27
6 0 146 c0 648 -415 1224 -1027 1426 -157 52 -254 67 -453 71 -102 2 -196 1
-210 -1z m316 -1350 c72 -44 114 -118 114 -201 0 -75 -19 -125 -63 -171 -51
-54 -102 -76 -177 -76 -75 0 -126 22 -177 76 -44 46 -63 97 -63 170 0 100 54
179 152 223 55 25 155 16 214 -21z"/>
</g>
</svg>
